<?xml version="1.0" encoding="utf-8"?>
<svg id="patrocinadores" viewBox="-153 157.171 630.37 231.753" xmlns="http://www.w3.org/2000/svg">
    <defs>
        <style type="text/css">
            .st0{fill:currentColor;}
            .st1{fill:currentColor;}
        </style>
    </defs>
    <path id="XMLID_94_" class="st0" d="M177.1,331.9c17.6,0,30.9-10.5,30.9-24.5v-8.3c-8.8-2.5-17.9-3.7-27-3.7 c-16.8,0-26.9,7-26.9,18.6C154.1,326.3,166,331.9,177.1,331.9 M152.1,245.1h29.8c27.1,0,42,13.9,42,39.2v59.1h-16.1v-12.3 c-6.3,7-16.9,14.3-33.6,14.3c-17.8,0-37-9.7-37-30.8c0-20,15.8-31.9,42.2-31.9c12.5,0,21.1,1.7,28.3,3.7v-1.8 c0-15.7-9.5-24.5-26.8-24.7h-29V245.1z M145.3,262.2h-2.3c-22.4,0-36.9,16.6-36.9,42.3v38.9H89.6v-97.1h16.6v21 c8.3-14.8,22.2-23.3,38-22.6l1.1,0V262.2z M6.3,288.5h59.2c-1.7-14.7-10.1-30-29.3-30C20.6,258.5,8.5,270.8,6.3,288.5 M36.5,244.3 c27.5,0,45.9,20.7,45.9,51.4c0,1.5,0,3-0.2,4.5l-0.1,1H6.3C8.5,319.1,21.4,331,38.7,331c11.5,0,20.8-4.1,29.4-13l0.8-0.8l10.6,9.4 l-0.8,0.9c-11.4,12.6-23.9,18.2-40.4,18.2c-28,0-49-21.8-49-50.6C-10.7,266.1,9.6,244.3,36.5,244.3 M-23.6,311.7l0.8-0.7l11.3,10.9 l-0.8,0.8c-11.3,11.3-26.4,22.9-52.8,22.9c-37.8,0-66.3-29-66.3-67.3c0-38.6,28.8-67.7,66.9-67.7c25.7,0,40,9.9,51.5,20.7l0.8,0.8 l-11.6,12.3l-0.8-0.8c-12.9-12.1-24.9-17.3-40-17.3c-28,0-49.1,22.2-49.1,51.7c0,29.6,21.1,52,49.1,52 C-46.5,329.9-35.1,322.6-23.6,311.7 M231.4,377.5c-2.3,0-4-0.5-5.5-2l1.6-1.5c1.1,1.1,2.4,1.5,4,1.5c2,0,3.2-0.9,3.2-2.3l-0.6-1.6 l-1.7-0.6l-1.8-0.3l-2.9-1.2l-1.1-2.9c0-2.7,1.9-4.5,5.2-4.5c2.1,0,3.5,0.5,4.8,1.7l-1.5,1.5c-1-0.9-2.1-1.2-3.4-1.2 c-1.8,0-2.8,1-2.8,2.4l0.6,1.4l1.7,0.7l1.7,0.3c1.4,0.2,2.2,0.5,2.9,1.1l1.3,3.1C237,375.8,234.7,377.5,231.4,377.5 M220.3,364.2 v13.2H218v-13.2h-4.3v-2.1h10.9v2.1H220.3z M206.4,377.5c-2.3,0-4-0.5-5.5-2l1.6-1.5c1.1,1.1,2.4,1.5,3.9,1.5c2,0,3.2-0.9,3.2-2.3 l-0.6-1.6l-1.7-0.6l-1.8-0.3l-2.9-1.2l-1.1-2.9c0-2.7,1.9-4.5,5.2-4.5c2.1,0,3.5,0.5,4.8,1.7l-1.5,1.5c-1-0.9-2.1-1.2-3.4-1.2 c-1.8,0-2.8,1-2.8,2.4l0.6,1.4l1.7,0.7l1.8,0.3c1.4,0.2,2.2,0.5,2.9,1.1l1.3,3.1C211.9,375.8,209.6,377.5,206.4,377.5 M195.9,362.1 h2.4v15.3h-2.4V362.1z M191,375.7c-2.3,2.3-6,2.3-8.3,0.1c-1.5-1.5-1.5-3.2-1.5-6.1c0-2.9,0-4.6,1.5-6.1c1.1-1.1,2.5-1.7,4.1-1.6 c3.3,0,5.2,2.1,5.6,4.7H190c-0.4-1.7-1.5-2.7-3.3-2.7l-2.3,0.9c-0.8,0.8-0.9,1.7-0.9,4.7c0,3.1,0.2,4,0.9,4.8l2.3,0.9l2.5-1.1 l0.8-2.4v-0.9h-3.3v-2h5.6v2.3C192.3,373.4,192,374.6,191,375.7 M174.9,365l-2.3-0.9l-2.3,0.9c-0.8,0.8-0.9,1.7-0.9,4.8 c0,3.1,0.2,3.9,0.9,4.7l2.3,0.9l2.3-0.9c0.8-0.8,0.9-1.7,0.9-4.7C175.8,366.6,175.7,365.8,174.9,365 M176.7,375.8 c-2.3,2.2-5.9,2.2-8.2,0c-1.5-1.5-1.5-3.2-1.5-6.1c0-2.9,0-4.6,1.5-6.1c2.3-2.2,5.9-2.2,8.2,0c1.5,1.5,1.5,3.2,1.5,6.1 C178.2,372.6,178.2,374.3,176.7,375.8 M155.7,377.3v-15.3h2.4v13.2h7.5v2.1H155.7z M148.9,365c-1.3-1.2-3.3-1.2-4.6,0 c-0.7,0.8-0.9,1.7-0.9,4.8c0,3.1,0.2,3.9,0.9,4.7l2.3,0.9l2.3-0.9c0.8-0.8,0.9-1.7,0.9-4.7C149.8,366.6,149.7,365.8,148.9,365 L148.9,365z M150.7,375.8c-2.3,2.2-5.9,2.2-8.1,0c-1.5-1.5-1.5-3.2-1.5-6.1c0-2.9,0-4.6,1.5-6.1c2.3-2.2,5.9-2.2,8.1,0 c1.5,1.5,1.5,3.2,1.5,6.1C152.2,372.6,152.2,374.3,150.7,375.8 M135.1,364.2v13.2h-2.4v-13.2h-4.2v-2.1h10.9v2.1H135.1z M122.4,365.5l-2.4,6.8h4.8L122.4,365.5z M126.4,377.3l-1.1-3.1h-6.1l-1.1,3.1h-2.5l5.7-15.3h1.9l5.7,15.3H126.4z M111.1,377.3 v-10.2l-3.6,7.4h-1.7l-3.7-7.4v10.2h-2.4v-15.3h2.4l4.5,9.5l4.4-9.5h2.3v15.3H111.1z M91.4,364.2h-3.5v4.8h3.5 c1.6,0,2.6-0.9,2.6-2.4C94,365.1,92.9,364.2,91.4,364.2 M94.1,377.3l-3.3-6.4h-2.9v6.4h-2.4v-15.3h6c2.9,0,4.8,1.9,4.8,4.5 c0.1,1.9-1.2,3.6-3.1,4.1l3.5,6.7L94.1,377.3z M72.4,377.3v-15.3h9.9v2.1h-7.5v4.5h6.4v2.1h-6.4v4.6h7.5v2.1L72.4,377.3z M65.8,365.2l-2.7-1h-2.9v11.1h2.9l2.7-1c0.8-0.9,0.8-2.5,0.8-4.6C66.6,367.5,66.6,366.1,65.8,365.2 M67.4,375.9c-1,1-2.4,1.4-4,1.4 h-5.5v-15.3h5.5c1.6,0,3.1,0.5,4,1.4c1.7,1.6,1.6,3.9,1.6,6.1C69,371.8,69.1,374.2,67.4,375.9 M46.2,377.3v-6.7H40v6.7h-2.4v-15.3 H40v6.5h6.3v-6.5h2.4v15.3H46.2z M30.6,364.2v13.2h-2.3v-13.2H24v-2.1h10.9v2.1H30.6z M19,362.1h2.4v15.3H19V362.1z M12.6,377.3 h-2.1l-3.1-10.7l-3.1,10.7h-2l-4-15.3h2.5L3.4,373l3.1-10.9h1.9l3.1,10.9l2.7-10.9h2.5L12.6,377.3z M-11.8,365.2l-2.7-1h-2.9v11.1 h2.9l2.7-1c0.8-0.9,0.8-2.5,0.8-4.6C-11,367.5-11,366.1-11.8,365.2 M-10.2,375.9c-1,1-2.4,1.4-4,1.4h-5.5v-15.3h5.5 c1.6,0,3.1,0.5,4,1.4c1.7,1.6,1.6,3.9,1.6,6.1C-8.6,371.8-8.5,374.2-10.2,375.9 M-32.9,377.3v-15.3h9.9v2.1h-7.5v4.5h6.4v2.1h-6.4 v4.6h7.5v2.1L-32.9,377.3z M-40.7,364.2h-3.5v5.1h3.5c1.7,0,2.8-0.9,2.8-2.5C-37.9,365.1-39,364.2-40.7,364.2 M-40.5,371.3h-3.6v6 h-2.4v-15.3h6c3.1,0,5.1,2,5.1,4.6C-35.5,369.4-37.4,371.3-40.5,371.3 M-53.3,365c-1.3-1.2-3.3-1.2-4.6,0c-0.8,0.8-0.9,1.7-0.9,4.8 c0,3.1,0.2,3.9,0.9,4.7l2.3,0.9l2.3-0.9c0.7-0.8,0.9-1.7,0.9-4.7C-52.4,366.6-52.6,365.8-53.3,365 M-51.6,375.8 c-1.1,1.1-2.5,1.7-4.1,1.6c-1.5,0-3-0.6-4.1-1.6c-1.5-1.5-1.5-3.2-1.5-6.1c0-2.9,0-4.6,1.5-6.1c1.1-1.1,2.5-1.7,4.1-1.6 c1.5,0,3,0.6,4.1,1.6c1.5,1.5,1.5,3.2,1.5,6.1C-50.1,372.6-50,374.3-51.6,375.8 M-72.6,377.3v-15.3h2.4v13.2h7.5v2.1H-72.6z M-85.7,377.3v-15.3h9.9v2.1h-7.5v4.5h6.4v2.1h-6.4v4.6h7.5v2.1L-85.7,377.3z M-93,377.3h-1.8l-5.1-15.3h2.4l3.6,11.1l3.6-11.1h2.5 L-93,377.3z M-111.2,377.3v-15.3h9.9v2.1h-7.5v4.5h6.4v2.1h-6.4v4.6h7.5v2.1L-111.2,377.3z M-117.8,365.2l-2.7-1h-2.9v11.1h2.9 l2.7-1c0.8-0.9,0.8-2.5,0.8-4.6C-116.9,367.5-117,366.1-117.8,365.2 M-116.1,375.9c-1,1-2.4,1.4-4,1.4h-5.5v-15.3h5.5 c1.6,0,3.1,0.5,4,1.4c1.7,1.6,1.6,3.9,1.6,6.1C-114.6,371.8-114.4,374.2-116.1,375.9"/>
    <path id="XMLID_47_" class="st1" d="M335.2,212.8l-45.6,108.7l-45.4-108.7h-18.9l56.8,131.5h14.5l56.9-131.5H335.2z M405.7,288.5 h-59.2c2.3-17.7,14.4-30,29.9-30C395.5,258.5,404,273.8,405.7,288.5L405.7,288.5z M376.7,244.3c-26.9,0-47.2,21.8-47.2,50.6 c0,28.9,21.1,50.6,49,50.6c16.6,0,29-5.6,40.4-18.2l0.8-0.9l-10.6-9.4l-0.8,0.8c-8.6,8.9-17.9,13-29.4,13 c-17.3,0-30.2-11.9-32.5-29.8h75.8l0.1-1c0.1-1.5,0.2-3,0.2-4.5C422.6,265,404.2,244.3,376.7,244.3L376.7,244.3z M468.6,169.2v211 H283.1l-91.1-211H468.6z"/>
</svg>
