<?xml version="1.0" encoding="utf-8"?>
<svg viewBox="0 0 398.02924 171.88338" xmlns="http://www.w3.org/2000/svg">
  <defs>
    <clipPath clipPathUnits="userSpaceOnUse" id="clipPath1092">
      <path d="M 0,486 H 660.473 V 0 H 0 Z" id="path1090"/>
    </clipPath>
  </defs>
  <g id="layer1" transform="matrix(1, 0, 0, 1, 83.92717742919922, -21.23667335510254)">
    <g id="g830" transform="matrix(0,-1.2665901,-1.2665901,0,411.87444,430.65419)" style="fill:currentColor;fill-opacity:1">
      <g id="g1086" transform="translate(-75.344706,2.4838914)" style="fill:currentColor;fill-opacity:1">
        <g id="g1088" clip-path="url(#clipPath1092)" style="fill:currentColor;fill-opacity:1">
          <g id="g1266" transform="translate(339.3066,364.7031)" style="fill:currentColor;fill-opacity:1">
            <path d="m 0,0 v -4.56 c 0,-5.472 3.467,-6.202 7.661,-6.202 h 22.62 c 4.742,0 8.025,0.73 8.025,6.202 V 0 Z M -22.068,0 H -76.423 V 24.259 H 59.282 v -34.474 c 0,-20.61 -10.216,-24.989 -26.814,-24.989 H 5.29 c -16.598,0 -27.358,6.75 -27.358,23.712 z" style="fill:currentColor;fill-opacity:1;fill-rule:nonzero;stroke:none" id="path1268"/>
          </g>
          <g id="g1270" transform="translate(343.3212,295.5783)" style="fill:currentColor;fill-opacity:1">
            <path d="m 0,0 v -4.742 c 0,-4.744 1.823,-6.75 8.209,-6.75 H 26.63 c 5.838,0 7.661,1.095 7.661,6.02 V 0 Z M -80.438,0 V 24.259 H 55.267 v -38.304 c 0,-14.774 -8.209,-22.254 -22.617,-22.254 H 10.944 c -10.944,0 -16.416,6.202 -18.241,10.763 -1.46,-4.013 -5.836,-10.398 -16.05,-10.398 h -46.147 c -5.838,0 -8.391,-1.093 -10.032,-2.006 h -0.912 v 24.26 c 1.46,1.094 4.376,2.188 10.396,2.188 h 39.581 c 6.202,0 8.025,1.46 8.025,6.385 V 0 Z" style="fill:currentColor;fill-opacity:1;fill-rule:nonzero;stroke:none" id="path1272"/>
          </g>
          <path d="M 262.883,249.255 H 398.588 V 224.996 H 262.883 Z" style="fill:currentColor;fill-opacity:1;fill-rule:nonzero;stroke:none" id="path1274"/>
          <g id="g1276" transform="translate(398.5886,214.0554)" style="fill:currentColor;fill-opacity:1">
            <path d="M 0,0 V -29.914 L -68.582,-39.216 0,-48.519 v -27.906 h -135.705 v 21.887 h 80.254 l -80.254,12.039 v 9.119 l 80.254,12.222 h -80.254 V 0 Z" style="fill:currentColor;fill-opacity:1;fill-rule:nonzero;stroke:none" id="path1278"/>
          </g>
          <g id="g1280" transform="translate(398.5886,75.9875)" style="fill:currentColor;fill-opacity:1">
            <path d="M 0,0 H -23.895 V 26.447 H -53.444 V 5.654 h -24.441 v 20.793 h -33.379 V -1.278 h -24.441 V 50.706 H 0 Z" style="fill-opacity: 1; fill-rule: nonzero; stroke: none;" id="path1282"/>
          </g>
        </g>
      </g>
    </g>
  </g>
</svg>